<svg xmlns="http://www.w3.org/2000/svg" width="800" height="300" viewBox="0 0 800 300"><rect width="800" height="300" fill="#ffffff"/><style>text{font-family:system-ui,-apple-system,'Segoe UI',Roboto,'PingFang SC','Microsoft YaHei','Noto Sans CJK SC',sans-serif}.g{stroke:#e8e8e8;stroke-width:1}.a{stroke:#999;stroke-width:1}.t{font-size:10px;fill:#666}.m{font-size:10px;text-anchor:middle;fill:#666}.e{font-size:10px;text-anchor:end;fill:#666}.l{font-size:11px;fill:#333}.tt{font-size:14px;font-weight:600;text-anchor:middle;fill:#444}.em{font-size:13px;text-anchor:middle;fill:#999}</style>
<text class="tt" x="400.0" y="24">信誉评分分布</text>
<line class="g" x1="46" y1="266" x2="754" y2="266"/><text class="e" x="40" y="269">0</text>
<line class="g" x1="46" y1="201.3" x2="754" y2="201.3"/><text class="e" x="40" y="204.3">1000</text>
<line class="g" x1="46" y1="136.6" x2="754" y2="136.6"/><text class="e" x="40" y="139.6">2000</text>
<line class="g" x1="46" y1="71.9" x2="754" y2="71.9"/><text class="e" x="40" y="74.9">3000</text>
<line class="a" x1="46" y1="24" x2="46" y2="266"/><line class="a" x1="46" y1="266" x2="754" y2="266"/>
<rect x="72.5" y="264.6" width="64.9" height="1.4" fill="#9b59b6" rx="1.5"/><text class="m" x="105" y="260.6">22</text><text class="m" x="105" y="278">30-39</text>
<rect x="190.6" y="265.8" width="64.9" height="0.2" fill="#9b59b6" rx="1.5"/><text class="m" x="223" y="261.8">3</text><text class="m" x="223" y="278">40-49</text>
<rect x="308.6" y="249.6" width="64.9" height="16.4" fill="#9b59b6" rx="1.5"/><text class="m" x="341" y="245.6">254</text><text class="m" x="341" y="278">60-69</text>
<rect x="426.6" y="254.7" width="64.9" height="11.3" fill="#9b59b6" rx="1.5"/><text class="m" x="459" y="250.7">175</text><text class="m" x="459" y="278">70-79</text>
<rect x="544.5" y="24" width="64.9" height="242" fill="#9b59b6" rx="1.5"/><text class="m" x="577" y="20">3741</text><text class="m" x="577" y="278">90-99</text>
<rect x="662.5" y="238.8" width="64.9" height="27.2" fill="#9b59b6" rx="1.5"/><text class="m" x="695" y="234.8">420</text><text class="m" x="695" y="278">100-109</text>
</svg>