<svg xmlns="http://www.w3.org/2000/svg" width="800" height="392" viewBox="0 0 800 392"><rect width="800" height="392" fill="#ffffff"/><style>text{font-family:system-ui,-apple-system,'Segoe UI',Roboto,'PingFang SC','Microsoft YaHei','Noto Sans CJK SC',sans-serif}.g{stroke:#e8e8e8;stroke-width:1}.a{stroke:#999;stroke-width:1}.t{font-size:10px;fill:#666}.m{font-size:10px;text-anchor:middle;fill:#666}.e{font-size:10px;text-anchor:end;fill:#666}.l{font-size:11px;fill:#333}.tt{font-size:14px;font-weight:600;text-anchor:middle;fill:#444}.em{font-size:13px;text-anchor:middle;fill:#999}</style>
<text class="tt" x="400.0" y="24">各国中位速度（MB/s）</text>
<line class="g" x1="46" y1="24" x2="46" y2="384"/>
<line class="g" x1="220.9" y1="24" x2="220.9" y2="384"/>
<line class="g" x1="395.9" y1="24" x2="395.9" y2="384"/>
<line class="g" x1="570.8" y1="24" x2="570.8" y2="384"/>
<text class="e" x="40" y="35">NA</text><rect x="46" y="26" width="662" height="10" fill="#1a7a8a" rx="1.5"/><text class="t" x="712" y="35">18.92</text>
<text class="e" x="40" y="53">CA</text><rect x="46" y="44" width="253.0" height="10" fill="#1a7a8a" rx="1.5"/><text class="t" x="303.0" y="53">7.23</text>
<text class="e" x="40" y="71">US</text><rect x="46" y="62" width="189.6" height="10" fill="#1a7a8a" rx="1.5"/><text class="t" x="239.6" y="71">5.42</text>
<text class="e" x="40" y="89">MX</text><rect x="46" y="80" width="128.4" height="10" fill="#1a7a8a" rx="1.5"/><text class="t" x="178.4" y="89">3.67</text>
<text class="e" x="40" y="107">DO</text><rect x="46" y="98" width="114.1" height="10" fill="#1a7a8a" rx="1.5"/><text class="t" x="164.1" y="107">3.26</text>
<text class="e" x="40" y="125">CO</text><rect x="46" y="116" width="104.3" height="10" fill="#1a7a8a" rx="1.5"/><text class="t" x="154.3" y="125">2.98</text>
<text class="e" x="40" y="143">IE</text><rect x="46" y="134" width="69.3" height="10" fill="#1a7a8a" rx="1.5"/><text class="t" x="119.3" y="143">1.98</text>
<text class="e" x="40" y="161">GB</text><rect x="46" y="152" width="67.2" height="10" fill="#1a7a8a" rx="1.5"/><text class="t" x="117.2" y="161">1.92</text>
<text class="e" x="40" y="179">FR</text><rect x="46" y="170" width="66.8" height="10" fill="#1a7a8a" rx="1.5"/><text class="t" x="116.8" y="179">1.91</text>
<text class="e" x="40" y="197">NL</text><rect x="46" y="188" width="65.4" height="10" fill="#1a7a8a" rx="1.5"/><text class="t" x="115.4" y="197">1.87</text>
<text class="e" x="40" y="215">BE</text><rect x="46" y="206" width="63.3" height="10" fill="#1a7a8a" rx="1.5"/><text class="t" x="113.3" y="215">1.81</text>
<text class="e" x="40" y="233">DK</text><rect x="46" y="224" width="62.6" height="10" fill="#1a7a8a" rx="1.5"/><text class="t" x="112.6" y="233">1.79</text>
<text class="e" x="40" y="251">DE</text><rect x="46" y="242" width="62.3" height="10" fill="#1a7a8a" rx="1.5"/><text class="t" x="112.3" y="251">1.78</text>
<text class="e" x="40" y="269">CH</text><rect x="46" y="260" width="61.9" height="10" fill="#1a7a8a" rx="1.5"/><text class="t" x="111.9" y="269">1.77</text>
<text class="e" x="40" y="287">NO</text><rect x="46" y="278" width="61.9" height="10" fill="#1a7a8a" rx="1.5"/><text class="t" x="111.9" y="287">1.77</text>
<text class="e" x="40" y="305">CZ</text><rect x="46" y="296" width="60.5" height="10" fill="#1a7a8a" rx="1.5"/><text class="t" x="110.5" y="305">1.73</text>
<text class="e" x="40" y="323">ES</text><rect x="46" y="314" width="60.5" height="10" fill="#1a7a8a" rx="1.5"/><text class="t" x="110.5" y="323">1.73</text>
<text class="e" x="40" y="341">SK</text><rect x="46" y="332" width="60.2" height="10" fill="#1a7a8a" rx="1.5"/><text class="t" x="110.2" y="341">1.72</text>
<text class="e" x="40" y="359">AT</text><rect x="46" y="350" width="59.5" height="10" fill="#1a7a8a" rx="1.5"/><text class="t" x="109.5" y="359">1.7</text>
<text class="e" x="40" y="377">HU</text><rect x="46" y="368" width="59.5" height="10" fill="#1a7a8a" rx="1.5"/><text class="t" x="109.5" y="377">1.7</text>
<text class="l" x="8" y="13">NA 样本6 中位区间[17.59-21.99] · CA 样本116 中位区间[5.5-8.79] · US 样本1913 中位区间[4.46-6.58] · MX 样本12 中位区间[1.47-4.98] · DO 样本6 中位区间[2.94-3.45]</text></svg>