<svg xmlns="http://www.w3.org/2000/svg" width="800" height="328" viewBox="0 0 800 328"><rect width="800" height="328" fill="#ffffff"/><style>text{font-family:system-ui,-apple-system,'Segoe UI',Roboto,'PingFang SC','Microsoft YaHei','Noto Sans CJK SC',sans-serif}.g{stroke:#e8e8e8;stroke-width:1}.a{stroke:#999;stroke-width:1}.t{font-size:10px;fill:#666}.m{font-size:10px;text-anchor:middle;fill:#666}.e{font-size:10px;text-anchor:end;fill:#666}.l{font-size:11px;fill:#333}.tt{font-size:14px;font-weight:600;text-anchor:middle;fill:#444}.em{font-size:13px;text-anchor:middle;fill:#999}</style>
<text class="tt" x="400.0" y="12">IP source coverage</text>
<text class="e" x="40" y="31">ip-api</text><rect x="46" y="22" width="662" height="10" fill="#2ecc71" rx="1.5"/><text class="t" x="712" y="31">15376</text>
<text class="e" x="40" y="49">wwuyi_blocked</text><rect x="46" y="40" width="7.3" height="10" fill="#2ecc71" rx="1.5"/><text class="t" x="57.3" y="49">169</text>
<text class="e" x="40" y="67">firehol_level1</text><rect x="46" y="58" width="1" height="10" fill="#2ecc71" rx="1.5"/><text class="t" x="51" y="67">8</text>
<text class="e" x="40" y="85">spamhaus</text><rect x="46" y="76" width="1" height="10" fill="#2ecc71" rx="1.5"/><text class="t" x="51" y="85">8</text>
<text class="e" x="40" y="103">abuse_list</text><rect x="46" y="94" width="1" height="10" fill="#2ecc71" rx="1.5"/><text class="t" x="51" y="103">1</text>
<text class="e" x="40" y="121">blocklist_de</text><rect x="46" y="112" width="1" height="10" fill="#2ecc71" rx="1.5"/><text class="t" x="51" y="121">1</text>
<text class="e" x="40" y="139">firehol_level2</text><rect x="46" y="130" width="1" height="10" fill="#2ecc71" rx="1.5"/><text class="t" x="51" y="139">1</text>
<text class="e" x="40" y="157">botscout</text><rect x="46" y="148" width="1" height="10" fill="#2ecc71" rx="1.5"/><text class="t" x="51" y="157">1</text>
<text class="tt" x="400.0" y="182">Sources per proxy</text>
<line class="g" x1="46" y1="294" x2="754" y2="294"/><text class="e" x="40" y="297">0</text>
<line class="g" x1="46" y1="259.9" x2="754" y2="259.9"/><text class="e" x="40" y="262.9">5000</text>
<line class="g" x1="46" y1="225.9" x2="754" y2="225.9"/><text class="e" x="40" y="228.9">10000</text>
<line class="g" x1="46" y1="191.8" x2="754" y2="191.8"/><text class="e" x="40" y="194.8">15000</text>
<line class="a" x1="46" y1="190" x2="46" y2="294"/><line class="a" x1="46" y1="294" x2="754" y2="294"/>
<rect x="88.8" y="190" width="80" height="104" fill="#2ecc71" rx="1.5"/><text class="m" x="128.8" y="186">15269</text><text class="m" x="128.8" y="306">1</text>
<rect x="254.2" y="293.1" width="80" height="0.9" fill="#2ecc71" rx="1.5"/><text class="m" x="294.2" y="289.1">135</text><text class="m" x="294.2" y="306">2</text>
<rect x="419.8" y="294.0" width="80" height="0.0" fill="#2ecc71" rx="1.5"/><text class="m" x="459.8" y="290.0">6</text><text class="m" x="459.8" y="306">3</text>
<rect x="585.2" y="294.0" width="80" height="0.0" fill="#2ecc71" rx="1.5"/><text class="m" x="625.2" y="290.0">2</text><text class="m" x="625.2" y="306">4</text>
</svg>