<svg xmlns="http://www.w3.org/2000/svg" width="800" height="300" viewBox="0 0 800 300"><rect width="800" height="300" fill="#ffffff"/><style>text{font-family:system-ui,-apple-system,'Segoe UI',Roboto,'PingFang SC','Microsoft YaHei','Noto Sans CJK SC',sans-serif}.g{stroke:#e8e8e8;stroke-width:1}.a{stroke:#999;stroke-width:1}.t{font-size:10px;fill:#666}.m{font-size:10px;text-anchor:middle;fill:#666}.e{font-size:10px;text-anchor:end;fill:#666}.l{font-size:11px;fill:#333}.tt{font-size:14px;font-weight:600;text-anchor:middle;fill:#444}.em{font-size:13px;text-anchor:middle;fill:#999}</style>
<text class="tt" x="400.0" y="24">代理总量与存活率（近 7 天）</text>
<line class="g" x1="46" y1="266" x2="754" y2="266"/><text class="e" x="40" y="269">0</text>
<line class="g" x1="46" y1="217.6" x2="754" y2="217.6"/><text class="e" x="40" y="220.6">5000</text>
<line class="g" x1="46" y1="169.2" x2="754" y2="169.2"/><text class="e" x="40" y="172.2">10000</text>
<line class="g" x1="46" y1="120.8" x2="754" y2="120.8"/><text class="e" x="40" y="123.8">15000</text>
<line class="g" x1="46" y1="72.4" x2="754" y2="72.4"/><text class="e" x="40" y="75.4">20000</text>
<line class="g" x1="46" y1="24" x2="754" y2="24"/><text class="e" x="40" y="27">25000</text>
<text class="e" x="792" y="269">98%</text>
<text class="e" x="792" y="188.3">98.5%</text>
<text class="e" x="792" y="107.7">99%</text>
<text class="e" x="792" y="27">99.5%</text>
<line class="a" x1="754" y1="24" x2="754" y2="266"/>
<line class="a" x1="46" y1="24" x2="46" y2="266"/><line class="a" x1="46" y1="266" x2="754" y2="266"/>
<polyline fill="none" stroke="#4c78a8" stroke-width="2" stroke-linejoin="round" points="46,77.9 59.5,77.9 77.9,78.1 103.2,80.6 147.2,80.3 161.8,80.3 211.8,82.7 228.9,82.7 243.3,82.4 256.2,82.3 265.6,82.3 286.9,82.6 312.9,60.2 334.0,60.7 348.5,60.9 361.3,60.8 377.0,60.8 419.1,62.0 447.8,61.8 471.5,61.5 484.1,61.4 513.1,64.5 559.4,64.9 572.0,64.8 585.7,64.8 602.0,66.9 625.0,67.0 649.3,66.8 670.1,66.5 684.1,66.6 752.9,68.8"/>
<circle cx="46" cy="77.9" r="4" fill="transparent"><title>2026-09-17 19:30 · 去重: 19433</title></circle>
<circle cx="77.9" cy="78.1" r="4" fill="transparent"><title>2026-09-18 02:52 · 去重: 19407</title></circle>
<circle cx="103.2" cy="80.6" r="4" fill="transparent"><title>2026-09-18 08:42 · 去重: 19152</title></circle>
<circle cx="161.8" cy="80.3" r="4" fill="transparent"><title>2026-09-18 22:12 · 去重: 19184</title></circle>
<circle cx="211.8" cy="82.7" r="4" fill="transparent"><title>2026-09-19 09:45 · 去重: 18932</title></circle>
<circle cx="243.3" cy="82.4" r="4" fill="transparent"><title>2026-09-19 17:01 · 去重: 18962</title></circle>
<circle cx="256.2" cy="82.3" r="4" fill="transparent"><title>2026-09-19 19:58 · 去重: 18979</title></circle>
<circle cx="286.9" cy="82.6" r="4" fill="transparent"><title>2026-09-20 03:04 · 去重: 18944</title></circle>
<circle cx="334.0" cy="60.7" r="4" fill="transparent"><title>2026-09-20 13:55 · 去重: 21208</title></circle>
<circle cx="348.5" cy="60.9" r="4" fill="transparent"><title>2026-09-20 17:16 · 去重: 21193</title></circle>
<circle cx="377.0" cy="60.8" r="4" fill="transparent"><title>2026-09-20 23:50 · 去重: 21198</title></circle>
<circle cx="419.1" cy="62.0" r="4" fill="transparent"><title>2026-09-21 09:33 · 去重: 21071</title></circle>
<circle cx="471.5" cy="61.5" r="4" fill="transparent"><title>2026-09-21 21:38 · 去重: 21129</title></circle>
<circle cx="513.1" cy="64.5" r="4" fill="transparent"><title>2026-09-22 07:13 · 去重: 20817</title></circle>
<circle cx="559.4" cy="64.9" r="4" fill="transparent"><title>2026-09-22 17:54 · 去重: 20778</title></circle>
<circle cx="585.7" cy="64.8" r="4" fill="transparent"><title>2026-09-22 23:58 · 去重: 20786</title></circle>
<circle cx="602.0" cy="66.9" r="4" fill="transparent"><title>2026-09-23 03:43 · 去重: 20573</title></circle>
<circle cx="649.3" cy="66.8" r="4" fill="transparent"><title>2026-09-23 14:38 · 去重: 20575</title></circle>
<circle cx="670.1" cy="66.5" r="4" fill="transparent"><title>2026-09-23 19:25 · 去重: 20607</title></circle>
<circle cx="752.9" cy="68.8" r="4" fill="transparent"><title>2026-09-24 14:32 · 去重: 20368</title></circle>
<text class="t" x="748.9" y="64.8" text-anchor="end" fill="#4c78a8">20368</text>
<polyline fill="none" stroke="#54a24b" stroke-width="2" stroke-linejoin="round" points="47.3,90.5 60.7,90.3 78.9,90.8 104.2,92.0 148.2,92.3 162.9,92.4 213.2,94.2 230.1,94.4 244.7,94.5 257.2,94.9 267.0,94.8 288.0,95.1 314.2,84.8 335.4,86.1 349.8,85.6 362.4,85.8 378.3,86.0 420.4,87.1 448.9,88.0 472.7,88.6 485.2,88.6 514.2,89.0 560.8,90.7 573.4,90.4 586.8,90.9 603.3,90.8 626.2,92.3 650.7,93.0 671.2,93.6 685.3,93.7 754,94.5"/>
<circle cx="47.3" cy="90.5" r="4" fill="transparent"><title>2026-09-17 19:49 · 存活: 18133</title></circle>
<circle cx="78.9" cy="90.8" r="4" fill="transparent"><title>2026-09-18 03:06 · 存活: 18102</title></circle>
<circle cx="104.2" cy="92.0" r="4" fill="transparent"><title>2026-09-18 08:56 · 存活: 17974</title></circle>
<circle cx="162.9" cy="92.4" r="4" fill="transparent"><title>2026-09-18 22:28 · 存活: 17930</title></circle>
<circle cx="213.2" cy="94.2" r="4" fill="transparent"><title>2026-09-19 10:04 · 存活: 17750</title></circle>
<circle cx="244.7" cy="94.5" r="4" fill="transparent"><title>2026-09-19 17:20 · 存活: 17722</title></circle>
<circle cx="257.2" cy="94.9" r="4" fill="transparent"><title>2026-09-19 20:12 · 存活: 17677</title></circle>
<circle cx="288.0" cy="95.1" r="4" fill="transparent"><title>2026-09-20 03:19 · 存活: 17659</title></circle>
<circle cx="335.4" cy="86.1" r="4" fill="transparent"><title>2026-09-20 14:14 · 存活: 18587</title></circle>
<circle cx="349.8" cy="85.6" r="4" fill="transparent"><title>2026-09-20 17:34 · 存活: 18632</title></circle>
<circle cx="378.3" cy="86.0" r="4" fill="transparent"><title>2026-09-21 00:08 · 存活: 18597</title></circle>
<circle cx="420.4" cy="87.1" r="4" fill="transparent"><title>2026-09-21 09:51 · 存活: 18480</title></circle>
<circle cx="472.7" cy="88.6" r="4" fill="transparent"><title>2026-09-21 21:54 · 存活: 18322</title></circle>
<circle cx="514.2" cy="89.0" r="4" fill="transparent"><title>2026-09-22 07:29 · 存活: 18286</title></circle>
<circle cx="560.8" cy="90.7" r="4" fill="transparent"><title>2026-09-22 18:14 · 存活: 18111</title></circle>
<circle cx="586.8" cy="90.9" r="4" fill="transparent"><title>2026-09-23 00:13 · 存活: 18088</title></circle>
<circle cx="603.3" cy="90.8" r="4" fill="transparent"><title>2026-09-23 04:02 · 存活: 18099</title></circle>
<circle cx="650.7" cy="93.0" r="4" fill="transparent"><title>2026-09-23 14:58 · 存活: 17870</title></circle>
<circle cx="671.2" cy="93.6" r="4" fill="transparent"><title>2026-09-23 19:42 · 存活: 17808</title></circle>
<circle cx="754" cy="94.5" r="4" fill="transparent"><title>2026-09-24 14:47 · 存活: 17714</title></circle>
<text class="t" x="750" y="90.5" text-anchor="end" fill="#54a24b">17714</text>
<polyline fill="none" stroke="#8c564b" stroke-width="2" stroke-dasharray="4,3" stroke-linejoin="round" points="47.3,253.3 60.7,253.5 78.9,253.2 104.2,254.5 148.2,253.9 162.9,253.7 213.2,254.4 230.1,254.2 244.7,253.9 257.2,253.3 267.0,253.4 288.0,253.5 314.2,241.4 335.4,240.6 349.8,241.1 362.4,240.8 378.3,240.7 420.4,240.9 448.9,239.6 472.7,238.6 485.2,238.6 514.2,241.4 560.8,240.1 573.4,240.1 586.8,239.7 603.3,241.8 626.2,240.3 650.7,239.6 671.2,238.7 685.3,238.6 754,240.1"/>
<circle cx="47.3" cy="253.3" r="4" fill="transparent"><title>2026-09-17 19:49 · 死亡: 1310</title></circle>
<circle cx="78.9" cy="253.2" r="4" fill="transparent"><title>2026-09-18 03:06 · 死亡: 1319</title></circle>
<circle cx="104.2" cy="254.5" r="4" fill="transparent"><title>2026-09-18 08:56 · 死亡: 1192</title></circle>
<circle cx="162.9" cy="253.7" r="4" fill="transparent"><title>2026-09-18 22:28 · 死亡: 1267</title></circle>
<circle cx="213.2" cy="254.4" r="4" fill="transparent"><title>2026-09-19 10:04 · 死亡: 1203</title></circle>
<circle cx="244.7" cy="253.9" r="4" fill="transparent"><title>2026-09-19 17:20 · 死亡: 1249</title></circle>
<circle cx="257.2" cy="253.3" r="4" fill="transparent"><title>2026-09-19 20:12 · 死亡: 1314</title></circle>
<circle cx="288.0" cy="253.5" r="4" fill="transparent"><title>2026-09-20 03:19 · 死亡: 1287</title></circle>
<circle cx="335.4" cy="240.6" r="4" fill="transparent"><title>2026-09-20 14:14 · 死亡: 2625</title></circle>
<circle cx="349.8" cy="241.1" r="4" fill="transparent"><title>2026-09-20 17:34 · 死亡: 2574</title></circle>
<circle cx="378.3" cy="240.7" r="4" fill="transparent"><title>2026-09-21 00:08 · 死亡: 2617</title></circle>
<circle cx="420.4" cy="240.9" r="4" fill="transparent"><title>2026-09-21 09:51 · 死亡: 2595</title></circle>
<circle cx="472.7" cy="238.6" r="4" fill="transparent"><title>2026-09-21 21:54 · 死亡: 2835</title></circle>
<circle cx="514.2" cy="241.4" r="4" fill="transparent"><title>2026-09-22 07:29 · 死亡: 2545</title></circle>
<circle cx="560.8" cy="240.1" r="4" fill="transparent"><title>2026-09-22 18:14 · 死亡: 2679</title></circle>
<circle cx="586.8" cy="239.7" r="4" fill="transparent"><title>2026-09-23 00:13 · 死亡: 2720</title></circle>
<circle cx="603.3" cy="241.8" r="4" fill="transparent"><title>2026-09-23 04:02 · 死亡: 2502</title></circle>
<circle cx="650.7" cy="239.6" r="4" fill="transparent"><title>2026-09-23 14:58 · 死亡: 2725</title></circle>
<circle cx="671.2" cy="238.7" r="4" fill="transparent"><title>2026-09-23 19:42 · 死亡: 2822</title></circle>
<circle cx="754" cy="240.1" r="4" fill="transparent"><title>2026-09-24 14:47 · 死亡: 2671</title></circle>
<text class="t" x="750" y="236.1" text-anchor="end" fill="#8c564b">2671</text>
<polyline fill="none" stroke="#f58518" stroke-width="2" stroke-dasharray="4,3" stroke-linejoin="round" points="47.3,104.7 60.7,56.3 78.9,72.4 104.2,120.8 148.2,136.9 162.9,88.5 213.2,120.8 230.1,104.7 244.7,104.7 257.2,136.9 267.0,104.7 288.0,88.5 314.2,136.9 335.4,169.2 349.8,136.9 362.4,153.1 378.3,153.1 420.4,185.3 448.9,249.9 472.7,249.9 485.2,136.9 514.2,153.1 560.8,249.9 573.4,153.1 586.8,169.2 603.3,104.7 626.2,233.7 650.7,201.5 671.2,233.7 685.3,153.1 754,266"/>
<circle cx="47.3" cy="104.7" r="4" fill="transparent"><title>2026-09-17 19:49 · 存活率: 99</title></circle>
<circle cx="78.9" cy="72.4" r="4" fill="transparent"><title>2026-09-18 03:06 · 存活率: 99.2</title></circle>
<circle cx="104.2" cy="120.8" r="4" fill="transparent"><title>2026-09-18 08:56 · 存活率: 98.9</title></circle>
<circle cx="162.9" cy="88.5" r="4" fill="transparent"><title>2026-09-18 22:28 · 存活率: 99.1</title></circle>
<circle cx="213.2" cy="120.8" r="4" fill="transparent"><title>2026-09-19 10:04 · 存活率: 98.9</title></circle>
<circle cx="244.7" cy="104.7" r="4" fill="transparent"><title>2026-09-19 17:20 · 存活率: 99</title></circle>
<circle cx="257.2" cy="136.9" r="4" fill="transparent"><title>2026-09-19 20:12 · 存活率: 98.8</title></circle>
<circle cx="288.0" cy="88.5" r="4" fill="transparent"><title>2026-09-20 03:19 · 存活率: 99.1</title></circle>
<circle cx="335.4" cy="169.2" r="4" fill="transparent"><title>2026-09-20 14:14 · 存活率: 98.6</title></circle>
<circle cx="349.8" cy="136.9" r="4" fill="transparent"><title>2026-09-20 17:34 · 存活率: 98.8</title></circle>
<circle cx="378.3" cy="153.1" r="4" fill="transparent"><title>2026-09-21 00:08 · 存活率: 98.7</title></circle>
<circle cx="420.4" cy="185.3" r="4" fill="transparent"><title>2026-09-21 09:51 · 存活率: 98.5</title></circle>
<circle cx="472.7" cy="249.9" r="4" fill="transparent"><title>2026-09-21 21:54 · 存活率: 98.1</title></circle>
<circle cx="514.2" cy="153.1" r="4" fill="transparent"><title>2026-09-22 07:29 · 存活率: 98.7</title></circle>
<circle cx="560.8" cy="249.9" r="4" fill="transparent"><title>2026-09-22 18:14 · 存活率: 98.1</title></circle>
<circle cx="586.8" cy="169.2" r="4" fill="transparent"><title>2026-09-23 00:13 · 存活率: 98.6</title></circle>
<circle cx="603.3" cy="104.7" r="4" fill="transparent"><title>2026-09-23 04:02 · 存活率: 99</title></circle>
<circle cx="650.7" cy="201.5" r="4" fill="transparent"><title>2026-09-23 14:58 · 存活率: 98.4</title></circle>
<circle cx="671.2" cy="233.7" r="4" fill="transparent"><title>2026-09-23 19:42 · 存活率: 98.2</title></circle>
<circle cx="754" cy="266" r="4" fill="transparent"><title>2026-09-24 14:47 · 存活率: 98</title></circle>
<text class="t" x="750" y="262" text-anchor="end" fill="#f58518">98</text>
<text class="t" x="46" y="288">2026-09-17 19:30</text>
<text class="m" x="228.9" y="288">2026-09-19 13:41</text>
<text class="m" x="419.1" y="288">2026-09-21 09:33</text>
<text class="m" x="573.4" y="288">2026-09-22 21:08</text>
<text class="e" x="754" y="288">2026-09-24 14:47</text>
<line x1="14" y1="20" x2="32" y2="20" stroke="#4c78a8" stroke-width="2"/><text class="l" x="36" y="23">去重 20368</text><line x1="103.2" y1="20" x2="121.2" y2="20" stroke="#54a24b" stroke-width="2"/><text class="l" x="125.2" y="23">存活 17714</text><line x1="192.4" y1="20" x2="210.4" y2="20" stroke="#8c564b" stroke-width="2" stroke-dasharray="4,3"/><text class="l" x="214.4" y="23">死亡 2671</text><line x1="275.2" y1="20" x2="293.2" y2="20" stroke="#f58518" stroke-width="2" stroke-dasharray="4,3"/><text class="l" x="297.2" y="23">存活率 98</text>
</svg>