<svg xmlns="http://www.w3.org/2000/svg" width="800" height="104" viewBox="0 0 800 104"><rect width="800" height="104" fill="#ffffff"/><style>text{font-family:system-ui,-apple-system,'Segoe UI',Roboto,'PingFang SC','Microsoft YaHei','Noto Sans CJK SC',sans-serif}.g{stroke:#e8e8e8;stroke-width:1}.a{stroke:#999;stroke-width:1}.t{font-size:10px;fill:#666}.m{font-size:10px;text-anchor:middle;fill:#666}.e{font-size:10px;text-anchor:end;fill:#666}.l{font-size:11px;fill:#333}.tt{font-size:14px;font-weight:600;text-anchor:middle;fill:#444}.em{font-size:13px;text-anchor:middle;fill:#999}</style>
<text class="tt" x="400.0" y="24">出口 IP 族分布</text>
<line class="g" x1="46" y1="24" x2="46" y2="96"/>
<line class="g" x1="186.7" y1="24" x2="186.7" y2="96"/>
<line class="g" x1="327.5" y1="24" x2="327.5" y2="96"/>
<line class="g" x1="468.2" y1="24" x2="468.2" y2="96"/>
<line class="g" x1="608.9" y1="24" x2="608.9" y2="96"/>
<text class="e" x="40" y="35">ipv6</text><rect x="46" y="26" width="662" height="10" fill="#54a24b" rx="1.5"/><text class="t" x="712" y="35">11760</text>
<text class="e" x="40" y="53">ipv4</text><rect x="46" y="44" width="306.2" height="10" fill="#54a24b" rx="1.5"/><text class="t" x="356.2" y="53">5440</text>
<text class="e" x="40" y="71">unknown</text><rect x="46" y="62" width="23.8" height="10" fill="#54a24b" rx="1.5"/><text class="t" x="73.8" y="71">422</text>
<text class="e" x="40" y="89">dual</text><rect x="46" y="80" width="2.3" height="10" fill="#54a24b" rx="1.5"/><text class="t" x="52.3" y="89">40</text>
</svg>