<svg xmlns="http://www.w3.org/2000/svg" width="800" height="300" viewBox="0 0 800 300"><rect width="800" height="300" fill="#ffffff"/><style>text{font-family:system-ui,-apple-system,'Segoe UI',Roboto,'PingFang SC','Microsoft YaHei','Noto Sans CJK SC',sans-serif}.g{stroke:#e8e8e8;stroke-width:1}.a{stroke:#999;stroke-width:1}.t{font-size:10px;fill:#666}.m{font-size:10px;text-anchor:middle;fill:#666}.e{font-size:10px;text-anchor:end;fill:#666}.l{font-size:11px;fill:#333}.tt{font-size:14px;font-weight:600;text-anchor:middle;fill:#444}.em{font-size:13px;text-anchor:middle;fill:#999}</style>
<text class="tt" x="400.0" y="24">分运营商可达数（近 7 天）</text>
<line class="g" x1="46" y1="266" x2="754" y2="266"/><text class="e" x="40" y="269">0</text>
<line class="g" x1="46" y1="205.5" x2="754" y2="205.5"/><text class="e" x="40" y="208.5">5000</text>
<line class="g" x1="46" y1="145" x2="754" y2="145"/><text class="e" x="40" y="148">10000</text>
<line class="g" x1="46" y1="84.5" x2="754" y2="84.5"/><text class="e" x="40" y="87.5">15000</text>
<line class="g" x1="46" y1="24" x2="754" y2="24"/><text class="e" x="40" y="27">20000</text>
<line class="a" x1="46" y1="24" x2="46" y2="266"/><line class="a" x1="46" y1="266" x2="754" y2="266"/>
<polyline fill="none" stroke="#4c78a8" stroke-width="2" stroke-linejoin="round" points="46,266 46.0,266 48.0,266 51.0,266 54.3,266 54.3,266 58.7,266 58.8,266 60.3,266 63.9,266 66.5,266 66.5,266 77.9,266 78.0,266 79.8,266 85.5,266 93.0,266 102.1,266 102.2,266 103.8,266 107.1,266 107.2,266 116.7,266 120.6,266 120.7,266 122.1,266 136.8,266 144.5,266 144.6,266 146.6,266 146.6,266 151.1,266 158.2,266 160.8,266 160.9,266 163.9,266 165.6,266 175.1,266 175.1,266 176.7,266 178.3,260.0 178.4,260.0 184.6,260.0 199.1,260.0 199.2,260.0 201.2,260.0 209.1,260.0 209.2,260.0 209.2,260.0 211.1,260.0 212.0,260.0 213.0,260.0 221.6,260.0 224.3,260.0 224.3,260.0 226.2,260.0 231.4,260.0 237.1,260.0 239.2,260.0 239.2,260.0 241.1,260.0 243.5,260.0 250.1,260.0 252.2,260.0 252.3,260.0 253.9,260.0 258.8,260.0 260.8,260.0 260.9,260.0 261.2,260.0 262.9,260.0 265.3,260.0 266.9,260.0 283.0,260.0 283.1,260.0 285.1,260.0 288.2,260.0 291.2,260.0 292.1,260.0 308.0,260.0 308.0,260.0 309.7,260.0 315.5,260.0 317.7,260.0 330.4,260.0 330.4,260.0 332.1,260.0 335.4,260.0 343.3,260.0 343.9,260.0 346.1,260.0 346.4,260.0 355.2,260.0 355.2,260.0 356.8,260.0 357.3,260.0 362.0,260.0 368.2,260.0 368.9,260.0 371.8,260.0 371.9,260.0 373.9,260.0 380.3,260.0 380.4,260.0 388.1,69.2 388.2,69.2 388.2,69.2 390.9,69.2 399.8,69.2 399.8,69.2 402.0,69.2 407.9,69.2 413.0,69.2 413.1,69.2 413.4,69.2 413.4,69.2 415.3,69.2 424.4,69.2 429.4,69.2 429.5,69.2 440.2,69.2 440.2,69.2 440.5,69.2 440.6,69.2 442.5,69.2 451.6,69.2 457.2,69.2 457.3,69.2 464.0,69.2 464.1,69.2 465.7,69.2 468.2,69.2 470.2,69.2 477.3,69.2 477.4,69.2 479.0,69.2 490.2,69.2 490.3,69.2 492.7,69.2 504.6,69.2 504.7,69.2 506.3,69.2 512.0,69.2 521.1,69.2 525.5,69.2 525.5,69.2 532.8,69.2 532.9,69.2 543.5,69.2 548.2,69.2 550.2,69.2 550.2,69.2 550.3,69.2 560.6,69.2 562.1,69.2 562.6,69.2 563.9,69.2 563.9,69.2 573.9,69.2 574.0,69.2 574.0,69.2 575.9,69.2 576.1,69.2 589.9,69.2 590.0,69.2 591.5,69.2 597.4,69.2 597.4,69.2 606.1,69.2 612.4,69.2 614.1,69.2 621.1,69.2 631.2,69.2 636.7,69.2 638.2,69.2 644.0,69.2 644.1,69.2 651.5,69.2 656.8,69.2 658.6,69.2 658.6,69.2 658.7,69.2 665.1,69.2 670.6,69.2 670.6,69.2 672.4,69.2 673.1,69.2 673.1,69.2 678.2,69.2 713.2,69.2 713.3,69.2 713.3,69.2 713.3,69.2 733.2,69.2 735.1,69.2 738.0,69.2 738.1,69.2 739.9,69.2 753.2,69.2 753.2,69.2 754,69.2"/>
<text class="t" x="750" y="65.2" text-anchor="end" fill="#4c78a8">16268</text>
<polyline fill="none" stroke="#54a24b" stroke-width="2" stroke-linejoin="round" points="46,266 46.0,266 48.0,266 51.0,266 54.3,266 54.3,266 58.7,266 58.8,266 60.3,266 63.9,266 66.5,266 66.5,266 77.9,266 78.0,266 79.8,266 85.5,266 93.0,266 102.1,266 102.2,266 103.8,266 107.1,266 107.2,266 116.7,266 120.6,266 120.7,266 122.1,266 136.8,266 144.5,266 144.6,266 146.6,266 146.6,266 151.1,266 158.2,266 160.8,266 160.9,266 163.9,266 165.6,266 175.1,266 175.1,266 176.7,266 178.3,260.0 178.4,260.0 184.6,260.0 199.1,260.0 199.2,260.0 201.2,260.0 209.1,260.0 209.2,260.0 209.2,260.0 211.1,260.0 212.0,260.0 213.0,260.0 221.6,260.0 224.3,260.0 224.3,260.0 226.2,260.0 231.4,260.0 237.1,260.0 239.2,260.0 239.2,260.0 241.1,260.0 243.5,260.0 250.1,260.0 252.2,260.0 252.3,260.0 253.9,260.0 258.8,260.0 260.8,260.0 260.9,260.0 261.2,260.0 262.9,260.0 265.3,260.0 266.9,260.0 283.0,260.0 283.1,260.0 285.1,260.0 288.2,260.0 291.2,260.0 292.1,260.0 308.0,260.0 308.0,260.0 309.7,260.0 315.5,260.0 317.7,260.0 330.4,260.0 330.4,260.0 332.1,260.0 335.4,260.0 343.3,260.0 343.9,260.0 346.1,260.0 346.4,260.0 355.2,260.0 355.2,260.0 356.8,260.0 357.3,260.0 362.0,260.0 368.2,260.0 368.9,260.0 371.8,260.0 371.9,260.0 373.9,260.0 380.3,260.0 380.4,260.0 388.1,265.3 388.2,265.3 388.2,265.3 390.9,265.3 399.8,265.3 399.8,265.3 402.0,265.3 407.9,265.3 413.0,265.3 413.1,265.3 413.4,265.3 413.4,265.3 415.3,265.3 424.4,265.3 429.4,265.3 429.5,265.3 440.2,265.3 440.2,265.3 440.5,265.3 440.6,265.3 442.5,265.3 451.6,265.3 457.2,265.3 457.3,265.3 464.0,265.3 464.1,265.3 465.7,265.3 468.2,265.3 470.2,265.3 477.3,265.3 477.4,265.3 479.0,265.3 490.2,265.3 490.3,265.3 492.7,265.3 504.6,265.3 504.7,265.3 506.3,265.3 512.0,265.3 521.1,265.3 525.5,265.3 525.5,265.3 532.8,265.3 532.9,265.3 543.5,265.3 548.2,265.3 550.2,265.3 550.2,265.3 550.3,265.3 560.6,265.3 562.1,265.3 562.6,265.3 563.9,265.3 563.9,265.3 573.9,265.3 574.0,265.3 574.0,265.3 575.9,265.3 576.1,265.3 589.9,265.3 590.0,265.3 591.5,265.3 597.4,265.3 597.4,265.3 606.1,265.3 612.4,265.3 614.1,265.3 621.1,265.3 631.2,265.3 636.7,265.3 638.2,265.3 644.0,265.3 644.1,265.3 651.5,265.3 656.8,265.3 658.6,265.3 658.6,265.3 658.7,265.3 665.1,265.3 670.6,265.3 670.6,265.3 672.4,265.3 673.1,265.3 673.1,265.3 678.2,265.3 713.2,265.3 713.3,265.3 713.3,265.3 713.3,265.3 733.2,265.3 735.1,265.3 738.0,265.3 738.1,265.3 739.9,265.3 753.2,265.3 753.2,265.3 754,265.3"/>
<text class="t" x="750" y="261.3" text-anchor="end" fill="#54a24b">56</text>
<polyline fill="none" stroke="#f58518" stroke-width="2" stroke-linejoin="round" points="46,266 46.0,266 48.0,266 51.0,266 54.3,266 54.3,266 58.7,266 58.8,266 60.3,266 63.9,266 66.5,266 66.5,266 77.9,266 78.0,266 79.8,266 85.5,266 93.0,266 102.1,266 102.2,266 103.8,266 107.1,266 107.2,266 116.7,266 120.6,266 120.7,266 122.1,266 136.8,266 144.5,266 144.6,266 146.6,266 146.6,266 151.1,266 158.2,266 160.8,266 160.9,266 163.9,266 165.6,266 175.1,266 175.1,266 176.7,266 178.3,260.0 178.4,260.0 184.6,260.0 199.1,260.0 199.2,260.0 201.2,260.0 209.1,260.0 209.2,260.0 209.2,260.0 211.1,260.0 212.0,260.0 213.0,260.0 221.6,260.0 224.3,260.0 224.3,260.0 226.2,260.0 231.4,260.0 237.1,260.0 239.2,260.0 239.2,260.0 241.1,260.0 243.5,260.0 250.1,260.0 252.2,260.0 252.3,260.0 253.9,260.0 258.8,260.0 260.8,260.0 260.9,260.0 261.2,260.0 262.9,260.0 265.3,260.0 266.9,260.0 283.0,260.0 283.1,260.0 285.1,260.0 288.2,260.0 291.2,260.0 292.1,260.0 308.0,260.0 308.0,260.0 309.7,260.0 315.5,260.0 317.7,260.0 330.4,260.0 330.4,260.0 332.1,260.0 335.4,260.0 343.3,260.0 343.9,260.0 346.1,260.0 346.4,260.0 355.2,260.0 355.2,260.0 356.8,260.0 357.3,260.0 362.0,260.0 368.2,260.0 368.9,260.0 371.8,260.0 371.9,260.0 373.9,260.0 380.3,260.0 380.4,260.0 388.1,265.3 388.2,265.3 388.2,265.3 390.9,265.3 399.8,265.3 399.8,265.3 402.0,265.3 407.9,265.3 413.0,265.3 413.1,265.3 413.4,265.3 413.4,265.3 415.3,265.3 424.4,265.3 429.4,265.3 429.5,265.3 440.2,265.3 440.2,265.3 440.5,265.3 440.6,265.3 442.5,265.3 451.6,265.3 457.2,265.3 457.3,265.3 464.0,265.3 464.1,265.3 465.7,265.3 468.2,265.3 470.2,265.3 477.3,265.3 477.4,265.3 479.0,265.3 490.2,265.3 490.3,265.3 492.7,265.3 504.6,265.3 504.7,265.3 506.3,265.3 512.0,265.3 521.1,265.3 525.5,265.3 525.5,265.3 532.8,265.3 532.9,265.3 543.5,265.3 548.2,265.3 550.2,265.3 550.2,265.3 550.3,265.3 560.6,265.3 562.1,265.3 562.6,265.3 563.9,265.3 563.9,265.3 573.9,265.3 574.0,265.3 574.0,265.3 575.9,265.3 576.1,265.3 589.9,265.3 590.0,265.3 591.5,265.3 597.4,265.3 597.4,265.3 606.1,265.3 612.4,265.3 614.1,265.3 621.1,265.3 631.2,265.3 636.7,265.3 638.2,265.3 644.0,265.3 644.1,265.3 651.5,265.3 656.8,265.3 658.6,265.3 658.6,265.3 658.7,265.3 665.1,265.3 670.6,265.3 670.6,265.3 672.4,265.3 673.1,265.3 673.1,265.3 678.2,265.3 713.2,265.3 713.3,265.3 713.3,265.3 713.3,265.3 733.2,265.3 735.1,265.3 738.0,265.3 738.1,265.3 739.9,265.3 753.2,265.3 753.2,265.3 754,265.3"/>
<text class="t" x="750" y="261.3" text-anchor="end" fill="#f58518">56</text>
<text class="t" x="46" y="288">2026-09-17 20:34</text>
<text class="m" x="224.3" y="288">2026-09-19 14:23</text>
<text class="m" x="399.8" y="288">2026-09-21 07:34</text>
<text class="m" x="576.1" y="288">2026-09-23 00:55</text>
<text class="e" x="754" y="288">2026-09-24 18:39</text>
<line x1="14" y1="20" x2="32" y2="20" stroke="#4c78a8" stroke-width="2"/><text class="l" x="36" y="23">中国电信 16268</text><line x1="116.0" y1="20" x2="134.0" y2="20" stroke="#54a24b" stroke-width="2"/><text class="l" x="138.0" y="23">中国联通 56</text><line x1="198.8" y1="20" x2="216.8" y2="20" stroke="#f58518" stroke-width="2"/><text class="l" x="220.8" y="23">中国移动 56</text>
</svg>