<svg xmlns="http://www.w3.org/2000/svg" width="800" height="418" viewBox="0 0 800 418"><rect width="800" height="418" fill="#ffffff"/><style>text{font-family:system-ui,-apple-system,'Segoe UI',Roboto,'PingFang SC','Microsoft YaHei','Noto Sans CJK SC',sans-serif}.g{stroke:#e8e8e8;stroke-width:1}.a{stroke:#999;stroke-width:1}.t{font-size:10px;fill:#666}.m{font-size:10px;text-anchor:middle;fill:#666}.e{font-size:10px;text-anchor:end;fill:#666}.l{font-size:11px;fill:#333}.tt{font-size:14px;font-weight:600;text-anchor:middle;fill:#444}.em{font-size:13px;text-anchor:middle;fill:#999}</style><text class="tt" x="400.0" y="24">Latency (ms) &amp; speed (MB/s)</text><text class="tt" x="400.0" y="44">Latency (ms)</text><rect x="72.55" y="181.01246169560775" width="64.9" height="18.987538304392235" fill="#b07d2e" rx="1.5"><title>0-100: 1256</title></rect><text class="m" x="105.0" y="178.01246169560775">1256</text><text class="m" x="105.0" y="212">0-100</text><rect x="190.55" y="188.20837589376916" width="64.9" height="11.791624106230849" fill="#b07d2e" rx="1.5"><title>100-200: 780</title></rect><text class="m" x="223.0" y="185.20837589376916">780</text><text class="m" x="223.0" y="212">100-200</text><rect x="308.55" y="124.89642492339121" width="64.9" height="75.10357507660879" fill="#b07d2e" rx="1.5"><title>200-300: 4968</title></rect><text class="m" x="341.0" y="121.89642492339121">4968</text><text class="m" x="341.0" y="212">200-300</text><rect x="426.55" y="52.0" width="64.9" height="148.0" fill="#b07d2e" rx="1.5"><title>300-500: 9790</title></rect><text class="m" x="459.0" y="49.0">9790</text><text class="m" x="459.0" y="212">300-500</text><rect x="544.55" y="188.91889683350357" width="64.9" height="11.081103166496424" fill="#b07d2e" rx="1.5"><title>500-1000: 733</title></rect><text class="m" x="577.0" y="185.91889683350357">733</text><text class="m" x="577.0" y="212">500-1000</text><rect x="662.55" y="195.8426966292135" width="64.9" height="4.157303370786517" fill="#b07d2e" rx="1.5"><title>1000+: 275</title></rect><text class="m" x="695.0" y="192.8426966292135">275</text><text class="m" x="695.0" y="212">1000+</text><text class="tt" x="400.0" y="224">Speed (MB/s)</text><rect x="77.85999999999999" y="376.1305099394987" width="77.88000000000001" height="3.8694900605012963" fill="#1a7a8a" rx="1.5"><title>0-0.5: 363</title></rect><text class="m" x="116.8" y="373.1305099394987">363</text><text class="m" x="116.8" y="392">0-0.5</text><rect x="219.45999999999998" y="375.75741861135117" width="77.88000000000001" height="4.242581388648805" fill="#1a7a8a" rx="1.5"><title>0.5-1: 398</title></rect><text class="m" x="258.4" y="372.75741861135117">398</text><text class="m" x="258.4" y="392">0.5-1</text><rect x="361.06" y="232.0" width="77.88000000000001" height="148.0" fill="#1a7a8a" rx="1.5"><title>1-2: 13884</title></rect><text class="m" x="400.0" y="229.0">13884</text><text class="m" x="400.0" y="392">1-2</text><rect x="502.6599999999999" y="365.34284067991933" width="77.88000000000001" height="14.65715932008067" fill="#1a7a8a" rx="1.5"><title>2-5: 1375</title></rect><text class="m" x="541.5999999999999" y="362.34284067991933">1375</text><text class="m" x="541.5999999999999" y="392">2-5</text><rect x="644.2599999999999" y="366.3661768942668" width="77.88000000000001" height="13.633823105733219" fill="#1a7a8a" rx="1.5"><title>5+: 1279</title></rect><text class="m" x="683.1999999999999" y="363.3661768942668">1279</text><text class="m" x="683.1999999999999" y="392">5+</text></svg>