<svg xmlns="http://www.w3.org/2000/svg" width="800" height="300" viewBox="0 0 800 300"><rect width="800" height="300" fill="#ffffff"/><style>text{font-family:system-ui,-apple-system,'Segoe UI',Roboto,'PingFang SC','Microsoft YaHei','Noto Sans CJK SC',sans-serif}.g{stroke:#e8e8e8;stroke-width:1}.a{stroke:#999;stroke-width:1}.t{font-size:10px;fill:#666}.m{font-size:10px;text-anchor:middle;fill:#666}.e{font-size:10px;text-anchor:end;fill:#666}.l{font-size:11px;fill:#333}.tt{font-size:14px;font-weight:600;text-anchor:middle;fill:#444}.em{font-size:13px;text-anchor:middle;fill:#999}</style>
<text class="tt" x="400.0" y="24">信誉评分分布</text>
<line class="g" x1="46" y1="266" x2="754" y2="266"/><text class="e" x="40" y="269">0</text>
<line class="g" x1="46" y1="198.4" x2="754" y2="198.4"/><text class="e" x="40" y="201.4">50</text>
<line class="g" x1="46" y1="130.8" x2="754" y2="130.8"/><text class="e" x="40" y="133.8">100</text>
<line class="g" x1="46" y1="63.2" x2="754" y2="63.2"/><text class="e" x="40" y="66.2">150</text>
<line class="a" x1="46" y1="24" x2="46" y2="266"/><line class="a" x1="46" y1="266" x2="754" y2="266"/>
<rect x="124" y="264.6" width="80" height="1.4" fill="#9b59b6" rx="1.5"/><text class="m" x="164" y="260.6">1</text><text class="m" x="164" y="278">30-39</text>
<rect x="360" y="263.3" width="80" height="2.7" fill="#9b59b6" rx="1.5"/><text class="m" x="400" y="259.3">2</text><text class="m" x="400" y="278">60-69</text>
<rect x="596" y="24" width="80" height="242" fill="#9b59b6" rx="1.5"/><text class="m" x="636" y="20">179</text><text class="m" x="636" y="278">70-79</text>
</svg>