<svg xmlns="http://www.w3.org/2000/svg" width="800" height="300" viewBox="0 0 800 300"><rect width="800" height="300" fill="#ffffff"/><style>text{font-family:system-ui,-apple-system,'Segoe UI',Roboto,'PingFang SC','Microsoft YaHei','Noto Sans CJK SC',sans-serif}.g{stroke:#e8e8e8;stroke-width:1}.a{stroke:#999;stroke-width:1}.t{font-size:10px;fill:#666}.m{font-size:10px;text-anchor:middle;fill:#666}.e{font-size:10px;text-anchor:end;fill:#666}.l{font-size:11px;fill:#333}.tt{font-size:14px;font-weight:600;text-anchor:middle;fill:#444}.em{font-size:13px;text-anchor:middle;fill:#999}</style>
<text class="tt" x="400.0" y="24">分运营商可达数（近 7 天）</text>
<line class="g" x1="46" y1="266" x2="754" y2="266"/><text class="e" x="40" y="269">0</text>
<line class="g" x1="46" y1="205.5" x2="754" y2="205.5"/><text class="e" x="40" y="208.5">5000</text>
<line class="g" x1="46" y1="145" x2="754" y2="145"/><text class="e" x="40" y="148">10000</text>
<line class="g" x1="46" y1="84.5" x2="754" y2="84.5"/><text class="e" x="40" y="87.5">15000</text>
<line class="g" x1="46" y1="24" x2="754" y2="24"/><text class="e" x="40" y="27">20000</text>
<line class="a" x1="46" y1="24" x2="46" y2="266"/><line class="a" x1="46" y1="266" x2="754" y2="266"/>
<polyline fill="none" stroke="#4c78a8" stroke-width="2" stroke-linejoin="round" points="46,266 46.0,266 51.4,266 51.4,266 53.3,266 56.3,266 59.6,266 59.6,266 64.0,266 64.1,266 65.6,266 69.1,266 71.7,266 71.7,266 83.1,266 83.1,266 85.0,266 90.6,266 98.1,266 107.1,266 107.1,266 108.7,266 112.1,266 112.1,266 121.6,266 125.5,266 125.6,266 126.9,266 141.5,266 149.2,266 149.3,266 151.3,266 151.3,266 155.8,266 162.8,266 165.4,266 165.5,266 168.5,266 170.1,266 179.6,266 179.7,266 181.2,266 182.8,260.0 182.8,260.0 189.0,260.0 203.5,260.0 203.5,260.0 205.5,260.0 213.4,260.0 213.5,260.0 213.5,260.0 215.3,260.0 216.3,260.0 217.3,260.0 225.8,260.0 228.5,260.0 228.5,260.0 230.4,260.0 235.5,260.0 241.2,260.0 243.3,260.0 243.3,260.0 245.2,260.0 247.6,260.0 254.1,260.0 256.3,260.0 256.3,260.0 257.9,260.0 262.7,260.0 264.8,260.0 264.8,260.0 265.2,260.0 266.8,260.0 269.2,260.0 270.8,260.0 286.8,260.0 286.9,260.0 288.9,260.0 292.0,260.0 295.0,260.0 295.9,260.0 311.6,260.0 311.6,260.0 313.3,260.0 319.1,260.0 321.3,260.0 333.9,260.0 333.9,260.0 335.6,260.0 338.9,260.0 346.7,260.0 347.3,260.0 349.5,260.0 349.8,260.0 358.5,260.0 358.6,260.0 360.1,260.0 360.6,260.0 365.3,260.0 371.5,260.0 372.1,260.0 375.1,260.0 375.1,260.0 377.1,260.0 383.5,260.0 383.6,260.0 391.3,69.2 391.3,69.2 391.4,69.2 394.0,69.2 402.9,69.2 402.9,69.2 405.0,69.2 410.9,69.2 416.0,69.2 416.0,69.2 416.3,69.2 416.4,69.2 418.3,69.2 427.3,69.2 432.3,69.2 432.3,69.2 443.0,69.2 443.0,69.2 443.3,69.2 443.4,69.2 445.3,69.2 454.3,69.2 459.9,69.2 460.0,69.2 466.7,69.2 466.7,69.2 468.3,69.2 470.8,69.2 472.8,69.2 479.8,69.2 479.9,69.2 481.5,69.2 492.7,69.2 492.7,69.2 495.2,69.2 507.0,69.2 507.0,69.2 508.7,69.2 514.3,69.2 523.4,69.2 527.7,69.2 527.8,69.2 535.0,69.2 535.1,69.2 545.6,69.2 550.3,69.2 552.3,69.2 552.3,69.2 552.4,69.2 562.6,69.2 564.1,69.2 564.6,69.2 565.8,69.2 565.9,69.2 575.8,69.2 575.9,69.2 575.9,69.2 577.8,69.2 578.0,69.2 591.7,69.2 591.8,69.2 593.3,69.2 599.1,69.2 599.2,69.2 607.8,69.2 614.1,69.2 615.8,69.2 622.7,69.2 632.7,69.2 638.2,69.2 639.7,69.2 645.5,69.2 645.5,69.2 653.0,69.2 658.2,69.2 659.9,69.2 660.0,69.2 660.1,69.2 666.4,69.2 671.9,69.2 671.9,69.2 673.7,69.2 674.4,69.2 674.4,69.2 679.4,69.2 714.2,69.2 714.3,69.2 714.3,69.2 714.3,69.2 734.1,69.2 736.0,69.2 738.9,69.2 738.9,69.2 740.7,69.2 754.0,69.2 754,69.2"/>
<text class="t" x="750" y="65.2" text-anchor="end" fill="#4c78a8">16268</text>
<polyline fill="none" stroke="#54a24b" stroke-width="2" stroke-linejoin="round" points="46,266 46.0,266 51.4,266 51.4,266 53.3,266 56.3,266 59.6,266 59.6,266 64.0,266 64.1,266 65.6,266 69.1,266 71.7,266 71.7,266 83.1,266 83.1,266 85.0,266 90.6,266 98.1,266 107.1,266 107.1,266 108.7,266 112.1,266 112.1,266 121.6,266 125.5,266 125.6,266 126.9,266 141.5,266 149.2,266 149.3,266 151.3,266 151.3,266 155.8,266 162.8,266 165.4,266 165.5,266 168.5,266 170.1,266 179.6,266 179.7,266 181.2,266 182.8,260.0 182.8,260.0 189.0,260.0 203.5,260.0 203.5,260.0 205.5,260.0 213.4,260.0 213.5,260.0 213.5,260.0 215.3,260.0 216.3,260.0 217.3,260.0 225.8,260.0 228.5,260.0 228.5,260.0 230.4,260.0 235.5,260.0 241.2,260.0 243.3,260.0 243.3,260.0 245.2,260.0 247.6,260.0 254.1,260.0 256.3,260.0 256.3,260.0 257.9,260.0 262.7,260.0 264.8,260.0 264.8,260.0 265.2,260.0 266.8,260.0 269.2,260.0 270.8,260.0 286.8,260.0 286.9,260.0 288.9,260.0 292.0,260.0 295.0,260.0 295.9,260.0 311.6,260.0 311.6,260.0 313.3,260.0 319.1,260.0 321.3,260.0 333.9,260.0 333.9,260.0 335.6,260.0 338.9,260.0 346.7,260.0 347.3,260.0 349.5,260.0 349.8,260.0 358.5,260.0 358.6,260.0 360.1,260.0 360.6,260.0 365.3,260.0 371.5,260.0 372.1,260.0 375.1,260.0 375.1,260.0 377.1,260.0 383.5,260.0 383.6,260.0 391.3,265.3 391.3,265.3 391.4,265.3 394.0,265.3 402.9,265.3 402.9,265.3 405.0,265.3 410.9,265.3 416.0,265.3 416.0,265.3 416.3,265.3 416.4,265.3 418.3,265.3 427.3,265.3 432.3,265.3 432.3,265.3 443.0,265.3 443.0,265.3 443.3,265.3 443.4,265.3 445.3,265.3 454.3,265.3 459.9,265.3 460.0,265.3 466.7,265.3 466.7,265.3 468.3,265.3 470.8,265.3 472.8,265.3 479.8,265.3 479.9,265.3 481.5,265.3 492.7,265.3 492.7,265.3 495.2,265.3 507.0,265.3 507.0,265.3 508.7,265.3 514.3,265.3 523.4,265.3 527.7,265.3 527.8,265.3 535.0,265.3 535.1,265.3 545.6,265.3 550.3,265.3 552.3,265.3 552.3,265.3 552.4,265.3 562.6,265.3 564.1,265.3 564.6,265.3 565.8,265.3 565.9,265.3 575.8,265.3 575.9,265.3 575.9,265.3 577.8,265.3 578.0,265.3 591.7,265.3 591.8,265.3 593.3,265.3 599.1,265.3 599.2,265.3 607.8,265.3 614.1,265.3 615.8,265.3 622.7,265.3 632.7,265.3 638.2,265.3 639.7,265.3 645.5,265.3 645.5,265.3 653.0,265.3 658.2,265.3 659.9,265.3 660.0,265.3 660.1,265.3 666.4,265.3 671.9,265.3 671.9,265.3 673.7,265.3 674.4,265.3 674.4,265.3 679.4,265.3 714.2,265.3 714.3,265.3 714.3,265.3 714.3,265.3 734.1,265.3 736.0,265.3 738.9,265.3 738.9,265.3 740.7,265.3 754.0,265.3 754,265.3"/>
<text class="t" x="750" y="261.3" text-anchor="end" fill="#54a24b">56</text>
<polyline fill="none" stroke="#f58518" stroke-width="2" stroke-linejoin="round" points="46,266 46.0,266 51.4,266 51.4,266 53.3,266 56.3,266 59.6,266 59.6,266 64.0,266 64.1,266 65.6,266 69.1,266 71.7,266 71.7,266 83.1,266 83.1,266 85.0,266 90.6,266 98.1,266 107.1,266 107.1,266 108.7,266 112.1,266 112.1,266 121.6,266 125.5,266 125.6,266 126.9,266 141.5,266 149.2,266 149.3,266 151.3,266 151.3,266 155.8,266 162.8,266 165.4,266 165.5,266 168.5,266 170.1,266 179.6,266 179.7,266 181.2,266 182.8,260.0 182.8,260.0 189.0,260.0 203.5,260.0 203.5,260.0 205.5,260.0 213.4,260.0 213.5,260.0 213.5,260.0 215.3,260.0 216.3,260.0 217.3,260.0 225.8,260.0 228.5,260.0 228.5,260.0 230.4,260.0 235.5,260.0 241.2,260.0 243.3,260.0 243.3,260.0 245.2,260.0 247.6,260.0 254.1,260.0 256.3,260.0 256.3,260.0 257.9,260.0 262.7,260.0 264.8,260.0 264.8,260.0 265.2,260.0 266.8,260.0 269.2,260.0 270.8,260.0 286.8,260.0 286.9,260.0 288.9,260.0 292.0,260.0 295.0,260.0 295.9,260.0 311.6,260.0 311.6,260.0 313.3,260.0 319.1,260.0 321.3,260.0 333.9,260.0 333.9,260.0 335.6,260.0 338.9,260.0 346.7,260.0 347.3,260.0 349.5,260.0 349.8,260.0 358.5,260.0 358.6,260.0 360.1,260.0 360.6,260.0 365.3,260.0 371.5,260.0 372.1,260.0 375.1,260.0 375.1,260.0 377.1,260.0 383.5,260.0 383.6,260.0 391.3,265.3 391.3,265.3 391.4,265.3 394.0,265.3 402.9,265.3 402.9,265.3 405.0,265.3 410.9,265.3 416.0,265.3 416.0,265.3 416.3,265.3 416.4,265.3 418.3,265.3 427.3,265.3 432.3,265.3 432.3,265.3 443.0,265.3 443.0,265.3 443.3,265.3 443.4,265.3 445.3,265.3 454.3,265.3 459.9,265.3 460.0,265.3 466.7,265.3 466.7,265.3 468.3,265.3 470.8,265.3 472.8,265.3 479.8,265.3 479.9,265.3 481.5,265.3 492.7,265.3 492.7,265.3 495.2,265.3 507.0,265.3 507.0,265.3 508.7,265.3 514.3,265.3 523.4,265.3 527.7,265.3 527.8,265.3 535.0,265.3 535.1,265.3 545.6,265.3 550.3,265.3 552.3,265.3 552.3,265.3 552.4,265.3 562.6,265.3 564.1,265.3 564.6,265.3 565.8,265.3 565.9,265.3 575.8,265.3 575.9,265.3 575.9,265.3 577.8,265.3 578.0,265.3 591.7,265.3 591.8,265.3 593.3,265.3 599.1,265.3 599.2,265.3 607.8,265.3 614.1,265.3 615.8,265.3 622.7,265.3 632.7,265.3 638.2,265.3 639.7,265.3 645.5,265.3 645.5,265.3 653.0,265.3 658.2,265.3 659.9,265.3 660.0,265.3 660.1,265.3 666.4,265.3 671.9,265.3 671.9,265.3 673.7,265.3 674.4,265.3 674.4,265.3 679.4,265.3 714.2,265.3 714.3,265.3 714.3,265.3 714.3,265.3 734.1,265.3 736.0,265.3 738.9,265.3 738.9,265.3 740.7,265.3 754.0,265.3 754,265.3"/>
<text class="t" x="750" y="261.3" text-anchor="end" fill="#f58518">56</text>
<text class="t" x="46" y="288">2026-09-17 19:18</text>
<text class="m" x="225.8" y="288">2026-09-19 13:45</text>
<text class="m" x="402.9" y="288">2026-09-21 07:34</text>
<text class="m" x="577.8" y="288">2026-09-23 00:52</text>
<text class="e" x="754" y="288">2026-09-24 18:29</text>
<line x1="14" y1="20" x2="32" y2="20" stroke="#4c78a8" stroke-width="2"/><text class="l" x="36" y="23">中国电信 16268</text><line x1="116.0" y1="20" x2="134.0" y2="20" stroke="#54a24b" stroke-width="2"/><text class="l" x="138.0" y="23">中国联通 56</text><line x1="198.8" y1="20" x2="216.8" y2="20" stroke="#f58518" stroke-width="2"/><text class="l" x="220.8" y="23">中国移动 56</text>
</svg>