<svg xmlns="http://www.w3.org/2000/svg" width="800" height="422" viewBox="0 0 800 422"><rect width="800" height="422" fill="#ffffff"/><style>text{font-family:system-ui,-apple-system,'Segoe UI',Roboto,'PingFang SC','Microsoft YaHei','Noto Sans CJK SC',sans-serif}.g{stroke:#e8e8e8;stroke-width:1}.a{stroke:#999;stroke-width:1}.t{font-size:10px;fill:#666}.m{font-size:10px;text-anchor:middle;fill:#666}.e{font-size:10px;text-anchor:end;fill:#666}.l{font-size:11px;fill:#333}.tt{font-size:14px;font-weight:600;text-anchor:middle;fill:#444}.em{font-size:13px;text-anchor:middle;fill:#999}</style>
<text class="tt" x="400.0" y="24">按子集统计存活代理</text>
<line class="g" x1="46" y1="24" x2="46" y2="414"/>
<line class="g" x1="231.9" y1="24" x2="231.9" y2="414"/>
<line class="g" x1="417.9" y1="24" x2="417.9" y2="414"/>
<line class="g" x1="603.8" y1="24" x2="603.8" y2="414"/>
<text class="e" x="40" y="35">all</text><rect x="46" y="26" width="662" height="7" fill="#58508d" rx="1.5"/><text class="t" x="712" y="35">17802</text>
<text class="e" x="40" y="50">all_stable</text><rect x="46" y="41" width="656.8" height="7" fill="#58508d" rx="1.5"/><text class="t" x="706.8" y="50">17662</text>
<text class="e" x="40" y="65">all_verified</text><rect x="46" y="56" width="643.3" height="7" fill="#58508d" rx="1.5"/><text class="t" x="693.3" y="65">17299</text>
<text class="e" x="40" y="80">hot</text><rect x="46" y="71" width="521.6" height="7" fill="#58508d" rx="1.5"/><text class="t" x="571.6" y="80">14027</text>
<text class="e" x="40" y="95">cn_common</text><rect x="46" y="86" width="521.6" height="7" fill="#58508d" rx="1.5"/><text class="t" x="571.6" y="95">14027</text>
<text class="e" x="40" y="110">europe</text><rect x="46" y="101" width="497.0" height="7" fill="#58508d" rx="1.5"/><text class="t" x="547.0" y="110">13365</text>
<text class="e" x="40" y="125">hk_us_jp_sg_tw_kr</text><rect x="46" y="116" width="140.8" height="7" fill="#58508d" rx="1.5"/><text class="t" x="190.8" y="125">3785</text>
<text class="e" x="40" y="140">asia</text><rect x="46" y="131" width="80.3" height="7" fill="#58508d" rx="1.5"/><text class="t" x="130.3" y="140">2160</text>
<text class="e" x="40" y="155">north_america</text><rect x="46" y="146" width="80.3" height="7" fill="#58508d" rx="1.5"/><text class="t" x="130.3" y="155">2159</text>
<text class="e" x="40" y="170">all_ltd</text><rect x="46" y="161" width="33.5" height="7" fill="#58508d" rx="1.5"/><text class="t" x="83.5" y="170">900</text>
<text class="e" x="40" y="185">all_ltd_verified</text><rect x="46" y="176" width="33.3" height="7" fill="#58508d" rx="1.5"/><text class="t" x="83.3" y="185">895</text>
<text class="e" x="40" y="200">all_ltd_stable</text><rect x="46" y="191" width="32.8" height="7" fill="#58508d" rx="1.5"/><text class="t" x="82.8" y="200">881</text>
<text class="e" x="40" y="215">europe_ltd</text><rect x="46" y="206" width="18.7" height="7" fill="#58508d" rx="1.5"/><text class="t" x="68.7" y="215">502</text>
<text class="e" x="40" y="230">asia_ltd</text><rect x="46" y="221" width="10.1" height="7" fill="#58508d" rx="1.5"/><text class="t" x="60.1" y="230">272</text>
<text class="e" x="40" y="245">hot_ltd</text><rect x="46" y="236" width="9.7" height="7" fill="#58508d" rx="1.5"/><text class="t" x="59.7" y="245">260</text>
<text class="e" x="40" y="260">cn_common_ltd</text><rect x="46" y="251" width="9.7" height="7" fill="#58508d" rx="1.5"/><text class="t" x="59.7" y="260">260</text>
<text class="e" x="40" y="275">middle_east</text><rect x="46" y="266" width="5.1" height="7" fill="#58508d" rx="1.5"/><text class="t" x="55.1" y="275">136</text>
<text class="e" x="40" y="290">hk_us_jp_sg_tw_kr_ltd</text><rect x="46" y="281" width="4.5" height="7" fill="#58508d" rx="1.5"/><text class="t" x="54.5" y="290">120</text>
<text class="e" x="40" y="305">oceania</text><rect x="46" y="296" width="2.5" height="7" fill="#58508d" rx="1.5"/><text class="t" x="52.5" y="305">67</text>
<text class="e" x="40" y="320">middle_east_ltd</text><rect x="46" y="311" width="2.1" height="7" fill="#58508d" rx="1.5"/><text class="t" x="52.1" y="320">57</text>
<text class="e" x="40" y="335">north_america_ltd</text><rect x="46" y="326" width="1.9" height="7" fill="#58508d" rx="1.5"/><text class="t" x="51.9" y="335">52</text>
<text class="e" x="40" y="350">south_america</text><rect x="46" y="341" width="1.1" height="7" fill="#58508d" rx="1.5"/><text class="t" x="51.1" y="350">29</text>
<text class="e" x="40" y="365">south_america_ltd</text><rect x="46" y="356" width="1.1" height="7" fill="#58508d" rx="1.5"/><text class="t" x="51.1" y="365">29</text>
<text class="e" x="40" y="380">oceania_ltd</text><rect x="46" y="371" width="1" height="7" fill="#58508d" rx="1.5"/><text class="t" x="51" y="380">23</text>
<text class="e" x="40" y="395">africa</text><rect x="46" y="386" width="1" height="7" fill="#58508d" rx="1.5"/><text class="t" x="51" y="395">10</text>
<text class="e" x="40" y="410">africa_ltd</text><rect x="46" y="401" width="1" height="7" fill="#58508d" rx="1.5"/><text class="t" x="51" y="410">10</text>
</svg>