<svg xmlns="http://www.w3.org/2000/svg" width="800" height="300" viewBox="0 0 800 300"><rect width="800" height="300" fill="#ffffff"/><style>text{font-family:system-ui,-apple-system,'Segoe UI',Roboto,'PingFang SC','Microsoft YaHei','Noto Sans CJK SC',sans-serif}.g{stroke:#e8e8e8;stroke-width:1}.a{stroke:#999;stroke-width:1}.t{font-size:10px;fill:#666}.m{font-size:10px;text-anchor:middle;fill:#666}.e{font-size:10px;text-anchor:end;fill:#666}.l{font-size:11px;fill:#333}.tt{font-size:14px;font-weight:600;text-anchor:middle;fill:#444}.em{font-size:13px;text-anchor:middle;fill:#999}</style>
<text class="tt" x="400.0" y="24">分运营商可达数（近 7 天）</text>
<line class="g" x1="46" y1="266" x2="754" y2="266"/><text class="e" x="40" y="269">0</text>
<line class="g" x1="46" y1="205.5" x2="754" y2="205.5"/><text class="e" x="40" y="208.5">5000</text>
<line class="g" x1="46" y1="145" x2="754" y2="145"/><text class="e" x="40" y="148">10000</text>
<line class="g" x1="46" y1="84.5" x2="754" y2="84.5"/><text class="e" x="40" y="87.5">15000</text>
<line class="g" x1="46" y1="24" x2="754" y2="24"/><text class="e" x="40" y="27">20000</text>
<line class="a" x1="46" y1="24" x2="46" y2="266"/><line class="a" x1="46" y1="266" x2="754" y2="266"/>
<polyline fill="none" stroke="#4c78a8" stroke-width="2" stroke-linejoin="round" points="46,266 49.6,266 52.1,266 52.2,266 63.5,266 63.6,266 65.4,266 71.0,266 78.5,266 87.5,266 87.5,266 89.1,266 92.5,266 92.5,266 101.9,266 105.9,266 105.9,266 107.3,266 121.9,266 129.6,266 129.7,266 131.6,266 131.7,266 136.2,266 143.2,266 145.8,266 145.8,266 148.8,266 150.5,266 159.9,266 160.0,266 161.5,266 163.1,260.0 163.2,260.0 169.3,260.0 183.8,260.0 183.8,260.0 185.8,260.0 193.7,260.0 193.8,260.0 193.8,260.0 195.6,260.0 196.6,260.0 197.6,260.0 206.1,260.0 208.8,260.0 208.8,260.0 210.7,260.0 215.8,260.0 221.5,260.0 223.6,260.0 223.6,260.0 225.5,260.0 227.8,260.0 234.4,260.0 236.5,260.0 236.6,260.0 238.2,260.0 243.0,260.0 245.0,260.0 245.1,260.0 245.5,260.0 247.1,260.0 249.5,260.0 251.0,260.0 267.0,260.0 267.1,260.0 269.1,260.0 272.3,260.0 275.2,260.0 276.1,260.0 291.8,260.0 291.9,260.0 293.5,260.0 299.3,260.0 301.5,260.0 314.1,260.0 314.1,260.0 315.8,260.0 319.1,260.0 326.9,260.0 327.5,260.0 329.7,260.0 330.0,260.0 338.7,260.0 338.7,260.0 340.3,260.0 340.8,260.0 345.4,260.0 351.7,260.0 352.3,260.0 355.2,260.0 355.3,260.0 357.3,260.0 363.7,260.0 363.7,260.0 371.4,69.2 371.4,69.2 371.5,69.2 374.1,69.2 383.0,69.2 383.0,69.2 385.1,69.2 391.1,69.2 396.1,69.2 396.2,69.2 396.5,69.2 396.5,69.2 398.4,69.2 407.4,69.2 412.4,69.2 412.4,69.2 423.1,69.2 423.1,69.2 423.4,69.2 423.5,69.2 425.4,69.2 434.4,69.2 440.0,69.2 440.0,69.2 446.7,69.2 446.8,69.2 448.4,69.2 450.9,69.2 452.9,69.2 459.9,69.2 460.0,69.2 461.6,69.2 472.8,69.2 472.8,69.2 475.2,69.2 487.0,69.2 487.1,69.2 488.7,69.2 494.3,69.2 503.4,69.2 507.7,69.2 507.8,69.2 515.0,69.2 515.1,69.2 525.6,69.2 530.3,69.2 532.2,69.2 532.3,69.2 532.4,69.2 542.6,69.2 544.1,69.2 544.6,69.2 545.8,69.2 545.9,69.2 555.8,69.2 555.8,69.2 555.9,69.2 557.7,69.2 558.0,69.2 571.7,69.2 571.7,69.2 573.3,69.2 579.1,69.2 579.1,69.2 587.7,69.2 594.0,69.2 595.7,69.2 602.6,69.2 612.7,69.2 618.1,69.2 619.6,69.2 625.4,69.2 625.4,69.2 632.9,69.2 638.1,69.2 639.9,69.2 639.9,69.2 640.0,69.2 646.3,69.2 651.8,69.2 651.8,69.2 653.6,69.2 654.2,69.2 654.3,69.2 659.3,69.2 694.0,69.2 694.1,69.2 694.2,69.2 694.2,69.2 713.9,69.2 715.8,69.2 718.7,69.2 718.7,69.2 720.6,69.2 733.8,69.2 733.8,69.2 734.6,69.2 740.6,69.2 740.7,69.2 742.6,69.2 748.0,69.2 750.3,69.2 750.4,69.2 754.0,69.2 754,69.2"/>
<text class="t" x="750" y="65.2" text-anchor="end" fill="#4c78a8">16268</text>
<polyline fill="none" stroke="#54a24b" stroke-width="2" stroke-linejoin="round" points="46,266 49.6,266 52.1,266 52.2,266 63.5,266 63.6,266 65.4,266 71.0,266 78.5,266 87.5,266 87.5,266 89.1,266 92.5,266 92.5,266 101.9,266 105.9,266 105.9,266 107.3,266 121.9,266 129.6,266 129.7,266 131.6,266 131.7,266 136.2,266 143.2,266 145.8,266 145.8,266 148.8,266 150.5,266 159.9,266 160.0,266 161.5,266 163.1,260.0 163.2,260.0 169.3,260.0 183.8,260.0 183.8,260.0 185.8,260.0 193.7,260.0 193.8,260.0 193.8,260.0 195.6,260.0 196.6,260.0 197.6,260.0 206.1,260.0 208.8,260.0 208.8,260.0 210.7,260.0 215.8,260.0 221.5,260.0 223.6,260.0 223.6,260.0 225.5,260.0 227.8,260.0 234.4,260.0 236.5,260.0 236.6,260.0 238.2,260.0 243.0,260.0 245.0,260.0 245.1,260.0 245.5,260.0 247.1,260.0 249.5,260.0 251.0,260.0 267.0,260.0 267.1,260.0 269.1,260.0 272.3,260.0 275.2,260.0 276.1,260.0 291.8,260.0 291.9,260.0 293.5,260.0 299.3,260.0 301.5,260.0 314.1,260.0 314.1,260.0 315.8,260.0 319.1,260.0 326.9,260.0 327.5,260.0 329.7,260.0 330.0,260.0 338.7,260.0 338.7,260.0 340.3,260.0 340.8,260.0 345.4,260.0 351.7,260.0 352.3,260.0 355.2,260.0 355.3,260.0 357.3,260.0 363.7,260.0 363.7,260.0 371.4,265.3 371.4,265.3 371.5,265.3 374.1,265.3 383.0,265.3 383.0,265.3 385.1,265.3 391.1,265.3 396.1,265.3 396.2,265.3 396.5,265.3 396.5,265.3 398.4,265.3 407.4,265.3 412.4,265.3 412.4,265.3 423.1,265.3 423.1,265.3 423.4,265.3 423.5,265.3 425.4,265.3 434.4,265.3 440.0,265.3 440.0,265.3 446.7,265.3 446.8,265.3 448.4,265.3 450.9,265.3 452.9,265.3 459.9,265.3 460.0,265.3 461.6,265.3 472.8,265.3 472.8,265.3 475.2,265.3 487.0,265.3 487.1,265.3 488.7,265.3 494.3,265.3 503.4,265.3 507.7,265.3 507.8,265.3 515.0,265.3 515.1,265.3 525.6,265.3 530.3,265.3 532.2,265.3 532.3,265.3 532.4,265.3 542.6,265.3 544.1,265.3 544.6,265.3 545.8,265.3 545.9,265.3 555.8,265.3 555.8,265.3 555.9,265.3 557.7,265.3 558.0,265.3 571.7,265.3 571.7,265.3 573.3,265.3 579.1,265.3 579.1,265.3 587.7,265.3 594.0,265.3 595.7,265.3 602.6,265.3 612.7,265.3 618.1,265.3 619.6,265.3 625.4,265.3 625.4,265.3 632.9,265.3 638.1,265.3 639.9,265.3 639.9,265.3 640.0,265.3 646.3,265.3 651.8,265.3 651.8,265.3 653.6,265.3 654.2,265.3 654.3,265.3 659.3,265.3 694.0,265.3 694.1,265.3 694.2,265.3 694.2,265.3 713.9,265.3 715.8,265.3 718.7,265.3 718.7,265.3 720.6,265.3 733.8,265.3 733.8,265.3 734.6,265.3 740.6,265.3 740.7,265.3 742.6,265.3 748.0,265.3 750.3,265.3 750.4,265.3 754.0,265.3 754,265.3"/>
<text class="t" x="750" y="261.3" text-anchor="end" fill="#54a24b">56</text>
<polyline fill="none" stroke="#f58518" stroke-width="2" stroke-linejoin="round" points="46,266 49.6,266 52.1,266 52.2,266 63.5,266 63.6,266 65.4,266 71.0,266 78.5,266 87.5,266 87.5,266 89.1,266 92.5,266 92.5,266 101.9,266 105.9,266 105.9,266 107.3,266 121.9,266 129.6,266 129.7,266 131.6,266 131.7,266 136.2,266 143.2,266 145.8,266 145.8,266 148.8,266 150.5,266 159.9,266 160.0,266 161.5,266 163.1,260.0 163.2,260.0 169.3,260.0 183.8,260.0 183.8,260.0 185.8,260.0 193.7,260.0 193.8,260.0 193.8,260.0 195.6,260.0 196.6,260.0 197.6,260.0 206.1,260.0 208.8,260.0 208.8,260.0 210.7,260.0 215.8,260.0 221.5,260.0 223.6,260.0 223.6,260.0 225.5,260.0 227.8,260.0 234.4,260.0 236.5,260.0 236.6,260.0 238.2,260.0 243.0,260.0 245.0,260.0 245.1,260.0 245.5,260.0 247.1,260.0 249.5,260.0 251.0,260.0 267.0,260.0 267.1,260.0 269.1,260.0 272.3,260.0 275.2,260.0 276.1,260.0 291.8,260.0 291.9,260.0 293.5,260.0 299.3,260.0 301.5,260.0 314.1,260.0 314.1,260.0 315.8,260.0 319.1,260.0 326.9,260.0 327.5,260.0 329.7,260.0 330.0,260.0 338.7,260.0 338.7,260.0 340.3,260.0 340.8,260.0 345.4,260.0 351.7,260.0 352.3,260.0 355.2,260.0 355.3,260.0 357.3,260.0 363.7,260.0 363.7,260.0 371.4,265.3 371.4,265.3 371.5,265.3 374.1,265.3 383.0,265.3 383.0,265.3 385.1,265.3 391.1,265.3 396.1,265.3 396.2,265.3 396.5,265.3 396.5,265.3 398.4,265.3 407.4,265.3 412.4,265.3 412.4,265.3 423.1,265.3 423.1,265.3 423.4,265.3 423.5,265.3 425.4,265.3 434.4,265.3 440.0,265.3 440.0,265.3 446.7,265.3 446.8,265.3 448.4,265.3 450.9,265.3 452.9,265.3 459.9,265.3 460.0,265.3 461.6,265.3 472.8,265.3 472.8,265.3 475.2,265.3 487.0,265.3 487.1,265.3 488.7,265.3 494.3,265.3 503.4,265.3 507.7,265.3 507.8,265.3 515.0,265.3 515.1,265.3 525.6,265.3 530.3,265.3 532.2,265.3 532.3,265.3 532.4,265.3 542.6,265.3 544.1,265.3 544.6,265.3 545.8,265.3 545.9,265.3 555.8,265.3 555.8,265.3 555.9,265.3 557.7,265.3 558.0,265.3 571.7,265.3 571.7,265.3 573.3,265.3 579.1,265.3 579.1,265.3 587.7,265.3 594.0,265.3 595.7,265.3 602.6,265.3 612.7,265.3 618.1,265.3 619.6,265.3 625.4,265.3 625.4,265.3 632.9,265.3 638.1,265.3 639.9,265.3 639.9,265.3 640.0,265.3 646.3,265.3 651.8,265.3 651.8,265.3 653.6,265.3 654.2,265.3 654.3,265.3 659.3,265.3 694.0,265.3 694.1,265.3 694.2,265.3 694.2,265.3 713.9,265.3 715.8,265.3 718.7,265.3 718.7,265.3 720.6,265.3 733.8,265.3 733.8,265.3 734.6,265.3 740.6,265.3 740.7,265.3 742.6,265.3 748.0,265.3 750.3,265.3 750.4,265.3 754.0,265.3 754,265.3"/>
<text class="t" x="750" y="261.3" text-anchor="end" fill="#f58518">56</text>
<text class="t" x="46" y="288">2026-09-17 23:55</text>
<text class="m" x="223.6" y="288">2026-09-19 17:53</text>
<text class="m" x="398.4" y="288">2026-09-21 11:13</text>
<text class="m" x="579.1" y="288">2026-09-23 05:55</text>
<text class="e" x="754" y="288">2026-09-24 23:15</text>
<line x1="14" y1="20" x2="32" y2="20" stroke="#4c78a8" stroke-width="2"/><text class="l" x="36" y="23">中国电信 16268</text><line x1="116.0" y1="20" x2="134.0" y2="20" stroke="#54a24b" stroke-width="2"/><text class="l" x="138.0" y="23">中国联通 56</text><line x1="198.8" y1="20" x2="216.8" y2="20" stroke="#f58518" stroke-width="2"/><text class="l" x="220.8" y="23">中国移动 56</text>
</svg>